<svg width="82" height="61" viewBox="0 0 82 61" fill="none" xmlns="http://www.w3.org/2000/svg">
<path d="M43.031 15.474L42.9502 15.4536C42.4295 15.3223 42.0897 14.8398 42.263 14.3484C42.263 14.3484 42.263 14.3483 42.263 14.3483L42.4045 14.3982L43.031 15.474ZM43.031 15.474L43.0338 15.4713M43.031 15.474L43.0338 15.4713M43.0338 15.4713C43.5282 15.5575 44.0472 15.315 44.205 14.865L43.0338 15.4713Z" fill="#6C757D" stroke="#6C757D" stroke-width="0.3"/>
<path d="M66.9689 43.1445H61.7753C61.2973 43.1445 60.9096 42.8168 60.9096 42.4127C60.9096 42.0087 61.2973 41.681 61.7753 41.681H66.9689C74.1282 41.681 79.9533 36.7569 79.9533 30.705C79.9533 24.6532 74.1282 19.7291 66.9689 19.7291H66.8441C66.593 19.7291 66.3543 19.6371 66.1899 19.4767C66.0254 19.3162 65.9512 19.1035 65.9871 18.8934C66.0644 18.4376 66.1033 17.9797 66.1033 17.5339C66.1033 12.289 61.0548 8.02137 54.8502 8.02137C52.4363 8.02137 50.1344 8.65902 48.1928 9.86583C47.7662 10.1308 47.1603 10.0132 46.9136 9.61652C41.4151 0.765754 27.0535 -0.422814 19.6077 7.27658C16.4711 10.5202 15.2387 14.7397 16.2263 18.8521C16.3351 19.3063 15.9239 19.7297 15.378 19.7297H15.0311C7.87183 19.7297 2.04676 24.6537 2.04676 30.7056C2.04676 36.7575 7.87183 41.6816 15.0311 41.6816H20.2248C20.7027 41.6816 21.0904 42.0093 21.0904 42.4133C21.0904 42.8173 20.7027 43.145 20.2248 43.145H15.0311C6.91705 43.145 0.31543 37.5645 0.31543 30.7056C0.31543 24.039 6.55157 18.5802 14.3516 18.2792C13.6189 14.0126 15.02 9.709 18.2672 6.35043C26.239 -1.89354 41.5162 -0.969504 47.9743 8.22313C50.0345 7.13127 52.392 6.55849 54.8499 6.55849C62.3672 6.55849 68.324 11.9671 67.8027 18.286C75.5309 18.6524 81.6842 24.0823 81.6842 30.705C81.6842 37.5645 75.0826 43.1445 66.9686 43.1445L66.9689 43.1445Z" fill="#6C757D"/>
<path d="M19.0932 41.9995C19.0932 52.1921 28.8931 60.443 40.884 60.443C52.875 60.443 62.6748 52.192 62.6748 41.9995C62.6748 31.8069 52.875 23.5561 40.884 23.5561C28.8929 23.5561 19.0932 31.8071 19.0932 41.9995ZM21.1248 41.9995C21.1248 32.8253 29.9643 25.3199 40.884 25.3199C51.8035 25.3199 60.6431 32.8251 60.6431 41.9995C60.6431 51.1738 51.8035 58.6792 40.884 58.6792C29.9645 58.6792 21.1248 51.1739 21.1248 41.9995Z" fill="#6C757D" stroke="#6C757D" stroke-width="0.3"/>
<path d="M40.4955 49.3637C40.4955 49.765 40.8711 50.0494 41.2792 50.0494C41.6873 50.0494 42.063 49.7654 42.063 49.3637V35.4351C42.063 35.0339 41.6874 34.7494 41.2792 34.7494C40.8711 34.7494 40.4955 35.0339 40.4955 35.4351V49.3637Z" fill="#6C757D" stroke="#6C757D" stroke-width="0.3"/>
<path d="M45.8043 40.2152C45.9582 40.3453 46.1562 40.4075 46.3492 40.4075L36.6577 40.1007L36.7545 40.2152L36.7545 40.2152C36.7546 40.2152 36.7546 40.2151 36.7546 40.2151L41.2794 36.3902L45.8043 40.2152ZM41.8243 34.9428C41.5209 34.6863 41.0374 34.6862 40.7343 34.9429L46.3492 40.4075C46.5419 40.4075 46.7401 40.3459 46.8942 40.2151C47.0495 40.0839 47.133 39.9059 47.133 39.7218C47.133 39.5378 47.0495 39.3597 46.8942 39.2285L41.8243 34.9428Z" fill="#6C757D" stroke="#6C757D" stroke-width="0.3"/>
</svg>
