<svg width="36" height="42" viewBox="0 0 36 42" fill="none" xmlns="http://www.w3.org/2000/svg">
<path d="M26.5562 27.2002H1.51099V41.1705H26.5562V27.2002Z" fill="#00B88C"/>
<path d="M28.1364 23.4102H0V25.9612H28.1364V23.4102Z" fill="#00B88C"/>
<path fill-rule="evenodd" clip-rule="evenodd" d="M20.478 19.0195L22.7211 15.5268L21.7099 14.9274L18.9152 16.0599C18.5124 16.2231 18.1496 16.3023 17.8054 16.3023C16.9025 16.3023 16.1918 15.7705 15.6327 14.6767C15.3693 14.1614 15.3409 13.5653 15.5519 12.9984C15.7152 12.561 16.0116 12.1603 16.3822 11.8573L14.934 10.9738C14.8589 10.928 14.7975 10.8683 14.7501 10.8007L14.5353 10.6729L8.51465 19.6721L20.0979 19.6115L20.478 19.0195Z" fill="#00B88C"/>
<path fill-rule="evenodd" clip-rule="evenodd" d="M23.3061 19.0166H21.9469L21.526 19.6721H22.4206V20.9089H7.96589L6.1907 20.9184L6.19729 20.9089H5.71701V19.6721H7.02429L7.46293 19.0166H4.8121L0.774414 22.1741H27.3685L23.3061 19.0166Z" fill="#00B88C"/>
<path fill-rule="evenodd" clip-rule="evenodd" d="M26.4938 4.41594C24.9132 4.41594 23.6257 4.18178 21.6592 3.72046C21.5343 3.6916 21.4073 3.67676 21.2816 3.67676C20.4047 3.67676 19.4433 4.42955 18.7099 5.69106C17.8297 7.20406 17.5411 7.71114 17.2521 8.21905C16.9986 8.6647 16.7446 9.11077 16.0933 10.2329L17.6615 11.1894L18.559 10.8439C18.728 10.6988 19.0516 10.2803 19.3151 9.94023C19.5793 9.59764 19.8531 9.24393 20.1099 8.96689C20.3202 8.73973 20.5601 8.50928 20.8813 8.3654C21.0932 8.27017 21.3389 8.22234 21.6126 8.22234C22.285 8.22234 23.2052 8.54061 23.5877 9.13097C23.685 9.28144 23.7127 9.46737 23.662 9.6397C23.6121 9.81202 23.4888 9.95425 23.3256 10.0289L19.0879 11.964C19.0261 11.9916 18.9585 12.0184 18.8826 12.0473L17.678 12.5358L17.5143 12.6022C17.1647 12.7444 16.8419 13.0763 16.7104 13.4288C16.6189 13.6741 16.6267 13.9041 16.7335 14.1127C17.22 15.0646 17.6298 15.0646 17.805 15.0646C17.9847 15.0646 18.202 15.0139 18.4502 14.9129L22.7525 13.1695C23.7011 12.7848 24.5825 12.6546 25.5971 12.7473C25.7121 12.7576 25.8292 12.7634 25.9484 12.7634C26.7865 12.7634 27.5755 12.4942 28.1119 12.0242C28.3671 11.8012 28.5984 11.6272 28.8832 11.4437L31.8255 9.55147L28.7942 4.30174C27.9309 4.37224 27.1798 4.41594 26.4938 4.41594Z" fill="#00B88C"/>
<path d="M31.5709 0.830231L29.0586 2.28027L33.4877 9.95383L35.9999 8.50378L31.5709 0.830231Z" fill="#00B88C"/>
</svg>
